<svg xmlns="http://www.w3.org/2000/svg" version="1.0" preserveAspectRatio="xMidYMid meet" viewBox="338.9 347.1 342.1 325.64">

 <g>
  <title>nodevision logo</title>
  <g transform="translate(0 1024) scale(0.1 -0.1)" fill="#000000" id="svg_1">
   <path d="m5028,6747c-32,-19 -476,-432 -793,-737c-60,-59 -209,-199 -330,-312c-121,-113 -286,-271 -368,-350l-148,-143l1,-48c0,-59 3,-62 320,-361c735,-692 974,-920 1175,-1117c172,-169 194,-182 257,-156c18,8 69,50 113,93c79,79 633,612 1065,1025c124,119 280,266 346,328c126,117 144,141 144,193c0,36 -1,37 -450,468c-146,140 -342,329 -435,420c-390,378 -728,692 -760,706c-49,20 -94,17 -137,-9zm79,-74c74,-186 346,-827 493,-1163c86,-197 140,-327 140,-340c0,-10 -241,-579 -360,-850c-37,-85 -121,-279 -185,-430c-65,-151 -122,-279 -127,-285c-5,-6 -46,28 -106,86c-53,53 -218,210 -367,349c-148,140 -380,360 -515,490c-135,129 -332,318 -437,419c-140,133 -193,190 -193,206c0,28 241,267 630,625c74,69 218,204 320,300c167,158 370,349 583,548c42,39 85,72 95,72c10,0 22,-12 29,-27z" id="svg_2" />
  </g>
 </g>
</svg>
